<svg width="64" height="64" xmlns="http://www.w3.org/2000/svg">

 <g>
  <title>background</title>
  <rect fill="none" id="canvas_background" height="402" width="582" y="-1" x="-1"/>
 </g>
 <g>
  <title>Layer 1</title>
  <path id="svg_2" fill="#ed2939" d="m37.123,10.286c0,0 6.575,1.332 10.597,5.956c4.021,4.623 3.885,5.05 5.494,9.526c0.537,1.462 1.608,1.329 2.01,1.261c0.402,-0.067 1.608,-0.67 0.905,-2.747c-0.704,-2.078 -3.812,-13.268 -17.702,-16.886c-1.43,-0.269 -1.957,0.201 -2.184,0.854c-0.225,0.654 -0.06,1.798 0.88,2.036z"/>
  <path id="svg_3" fill="#ed2939" d="m25.313,10.286c0,0 -6.574,1.332 -10.594,5.956c-4.021,4.623 -3.885,5.05 -5.494,9.526c-0.537,1.462 -1.608,1.329 -2.01,1.261c-0.402,-0.067 -1.611,-0.67 -0.908,-2.747c0.704,-2.078 3.81,-13.268 17.702,-16.886c1.429,-0.269 1.957,0.201 2.183,0.854c0.226,0.654 0.063,1.798 -0.879,2.036z"/>
  <path id="svg_4" fill="#ed2939" d="m25.343,54.301c0,0 -6.582,-1.304 -10.621,-5.91c-4.039,-4.607 -3.907,-5.036 -5.534,-9.504c-0.543,-1.459 -1.613,-1.321 -2.013,-1.252c-0.402,0.067 -1.608,0.676 -0.896,2.75c0.711,2.076 3.865,13.251 17.773,16.812c1.431,0.263 1.956,-0.21 2.178,-0.863c0.223,-0.656 0.054,-1.8 -0.887,-2.033z"/>
  <path id="svg_5" fill="#ed2939" d="m37.151,54.379c0,0 6.57,-1.358 10.571,-5.999c4.002,-4.641 3.863,-5.069 5.453,-9.552c0.531,-1.464 1.603,-1.333 2.008,-1.268c0.401,0.064 1.61,0.661 0.917,2.744c-0.697,2.079 -3.758,13.281 -17.634,16.959c-1.427,0.273 -1.956,-0.192 -2.186,-0.845c-0.228,-0.652 -0.068,-1.797 0.871,-2.039z"/>
  <path id="svg_6" fill="#ed2939" d="m37.478,20.803c0,0 3.267,1.231 5.227,5.302c0.527,0.905 1.382,1.206 2.286,0.754s0.879,-1.555 0.679,-1.957c-0.201,-0.405 -1.96,-4.702 -6.81,-6.988c-0.904,-0.302 -1.558,0.427 -1.759,0.628c-0.202,0.2 -0.579,1.432 0.377,2.261z"/>
  <path id="svg_7" fill="#ed2939" d="m25.26,20.803c0,0 -3.267,1.231 -5.227,5.302c-0.528,0.905 -1.382,1.206 -2.287,0.754c-0.905,-0.452 -0.879,-1.555 -0.679,-1.957c0.201,-0.405 1.96,-4.702 6.81,-6.988c0.905,-0.302 1.558,0.427 1.759,0.628c0.201,0.2 0.578,1.432 -0.376,2.261z"/>
  <path id="svg_8" fill="#ed2939" d="m25.26,43.124c0,0 -3.267,-1.231 -5.227,-5.301c-0.528,-0.904 -1.382,-1.206 -2.287,-0.754c-0.905,0.452 -0.879,1.554 -0.679,1.958c0.201,0.402 1.96,4.699 6.81,6.986c0.905,0.301 1.558,-0.428 1.759,-0.629c0.201,-0.2 0.578,-1.431 -0.376,-2.26z"/>
  <path id="svg_9" fill="#ed2939" d="m37.478,43.125c0,0 3.267,-1.231 5.227,-5.304c0.527,-0.904 1.382,-1.206 2.286,-0.753c0.904,0.452 0.879,1.556 0.679,1.958c-0.201,0.405 -1.96,4.702 -6.81,6.988c-0.904,0.302 -1.558,-0.427 -1.759,-0.628s-0.579,-1.432 0.377,-2.261z"/>
  <path id="svg_10" fill="#ed2939" d="m62.454,29.932l-29.197,0l0,-28.387c0,-0.889 -0.721,-1.608 -1.608,-1.608l-0.905,0c-0.887,0 -1.608,0.719 -1.608,1.608l0,28.386l-27.591,0c-0.889,0 -1.608,0.721 -1.608,1.608l0,0.904c0,0.888 0.719,1.608 1.608,1.608l27.59,0l0,28.401c0,0.888 0.721,1.608 1.608,1.608l0.905,0c0.887,0 1.608,-0.721 1.608,-1.608l0,-28.399l29.197,0c0.889,0 1.608,-0.721 1.608,-1.608l0,-0.905c0.001,-0.888 -0.718,-1.608 -1.607,-1.608z"/>
 </g>
</svg>